<?xml version="1.0" encoding="UTF-8"?>
<!DOCTYPE svg PUBLIC "-//W3C//DTD SVG 1.1//EN" "http://www.w3.org/Graphics/SVG/1.1/DTD/svg11.dtd">
<!-- Creator: CorelDRAW 2020 (64 Bit) -->
<svg xmlns="http://www.w3.org/2000/svg" xml:space="preserve" width="6mm" height="9mm" version="1.1" style="shape-rendering:geometricPrecision; text-rendering:geometricPrecision; image-rendering:optimizeQuality; fill-rule:evenodd; clip-rule:evenodd"
viewBox="0 0 600 900"
 xmlns:xlink="http://www.w3.org/1999/xlink"
 xmlns:xodm="http://www.corel.com/coreldraw/odm/2003">
 <defs>
  <style type="text/css">
   <![CDATA[
    .fil0 {fill:#0084FF;fill-rule:nonzero}
   ]]>
  </style>
 </defs>
 <g id="Camada_x0020_1">
  <metadata id="CorelCorpID_0Corel-Layer"/>
  <path id="Path_7" class="fil0" d="M279.53 288.15c140.91,0.37 254.95,114.72 254.95,255.63 0,141.15 -114.48,255.63 -255.63,255.63 -141.16,0 -255.64,-114.48 -255.64,-255.63 0,-0.12 0,-0.31 0,-0.44 0.31,-141.01 114.78,-255.2 255.82,-255.2 0.16,0 0.34,0 0.5,0l0 0.01zm36.83 276.39c-33.21,10.48 -64.28,27.17 -91.41,49.01 -36.02,28.6 -66.77,63.52 -90.57,102.88 2.14,1.77 3.76,3.2 5.45,4.52 34.4,27.12 76.12,43.59 119.77,47.19 6.47,0.56 13,0.84 19.5,0.84 26.83,0 53.5,-4.79 78.64,-14.07 2.71,-0.45 4.69,-2.8 4.69,-5.55 0,-0.52 -0.07,-1.04 -0.21,-1.54 -0.58,-4.29 -0.74,-8.6 -1.22,-12.91 -4.51,-41.6 -13.81,-82.85 -27.3,-122.41 -5.46,-15.87 -11.46,-31.61 -17.34,-47.96zm-159.67 301.12c23.03,-35.38 51.14,-67.51 83.16,-95.02 31.99,-27.73 69.07,-49.29 109.09,-63.19 -5.05,-10.58 -9.82,-20.56 -14.63,-30.59 -0.69,-1.43 -1.56,-2.65 -2.65,-4.5 -48.33,16.44 -99.22,24.88 -150.29,24.88 -27.53,0 -55.06,-2.51 -82.13,-7.3 4.21,1.88 8.5,3.68 12.82,5.32l44.63 170.4zm-109.41 -381.24c25.5,4.63 51.49,7 77.43,7 46.04,0 91.82,-7.37 135.49,-21.84 -0.98,-2.06 -1.51,-3.39 -2.17,-4.6 -24.15,-44.11 -51.49,-86.87 -81.34,-127.4 -2.78,-3.78 -4.82,-3.97 -8.76,-2.01 -25.63,12.52 -48.74,29.8 -68,50.83 -21.68,30.56 -35.39,66.12 -39.81,103.32l-12.84 -5.3zm384.2 149.99c0.71,0 1.11,0 1.4,0 1.15,-0.52 2.27,-1.11 3.34,-1.76 56.64,-34.6 95.25,-92.47 105.36,-158.07 0.69,-4 -0.32,-5.9 -4.5,-7.36 -27.94,-9.9 -57.3,-15.95 -86.9,-17.83 -5.14,-0.32 -10.43,-0.5 -15.63,-0.5 -16.32,0 -32.68,1.64 -48.67,4.8 12.44,50.63 18.77,102.8 18.77,154.98 0,43.31 -4.43,86.62 -12.98,129.07l39.81 -103.33zm-14.49 -547.26c-32.86,-28.21 -73.45,-46.06 -116.43,-51.11 -9.04,-1.09 -18.25,-1.69 -27.37,-1.69 -21.32,0 -42.58,3.09 -63.01,9.13 31.95,43.01 60.89,88.47 86.27,135.69 18.37,76.74 63.19,144.71 126.36,191.97l-5.82 -283.99zm-209.08 249.69c20.89,-4.31 42.3,-6.53 63.63,-6.53 36.23,0 72.19,6.28 106.28,18.54 -0.8,-55.19 -21.86,-108.3 -59.1,-149.07 -35.14,41.88 -79.25,75.57 -128.96,98.42l18.15 38.64z" data-name="Path 7"/>
 </g>
</svg>
