<?xml version="1.0" encoding="UTF-8"?>
<!DOCTYPE svg PUBLIC "-//W3C//DTD SVG 1.1//EN" "http://www.w3.org/Graphics/SVG/1.1/DTD/svg11.dtd">
<!-- Creator: CorelDRAW 2020 (64 Bit) -->
<svg xmlns="http://www.w3.org/2000/svg" xml:space="preserve" width="210mm" height="297mm" version="1.1" style="shape-rendering:geometricPrecision; text-rendering:geometricPrecision; image-rendering:optimizeQuality; fill-rule:evenodd; clip-rule:evenodd"
viewBox="0 0 21000 29700"
 xmlns:xlink="http://www.w3.org/1999/xlink"
 xmlns:xodm="http://www.corel.com/coreldraw/odm/2003">
 <defs>
  <style type="text/css">
   <![CDATA[
    .fil0 {fill:#0084FF}
   ]]>
  </style>
 </defs>
 <g id="Camada_x0020_1">
  <metadata id="CorelCorpID_0Corel-Layer"/>
  <g id="_2241292092864">
   <path class="fil0" d="M11611.36 16989.42l627.93 0 0 647.56 -627.93 0 0 -647.56zm-1040.01 0l745.67 0 0 647.56 -745.67 0 0 -647.56zm-2080.02 0l1785.68 0 0 647.56 -1785.68 0 0 -647.56zm-1040.01 0l745.67 0 0 647.56 -745.67 0 0 -647.56zm-981.14 0l686.8 0 0 647.56 -686.8 0 0 -647.56zm4689.86 -961.52l1020.39 0c45.21,0 58.86,13.66 58.86,58.87l0 588.68 -1079.25 0 0 -647.55zm-1040.02 0l726.05 0 0 647.55 -726.05 0 0 -647.55zm-1040 0l726.04 0 0 647.55 -726.04 0 0 -647.55zm-1040.02 0l726.05 0 0 647.55 -726.05 0 0 -647.55zm-981.14 0l667.17 0 0 647.55 -667.17 0 0 -647.55zm-588.68 0l274.71 0 0 647.55 -274.71 0 0 -647.55zm5141.18 -941.89l627.93 0 0 647.55 -627.93 0 0 -647.55zm-1040.01 0l745.67 0 0 647.55 -745.67 0 0 -647.55zm-1040.01 0l745.67 0 0 647.55 -745.67 0 0 -647.55zm-1040.01 0l745.67 0 0 647.55 -745.67 0 0 -647.55zm-1040.01 0l745.67 0 0 647.55 -745.67 0 0 -647.55zm-981.14 0l686.8 0 0 647.55 -686.8 0 0 -647.55zm-313.97 -137.37l0 2825.69c0,120.46 93.4,176.61 215.85,176.61l5945.72 0c94.43,0 215.85,-53.82 215.85,-137.36l0 -2884.56c0,-116.96 -79.19,-156.98 -196.22,-156.98l-6004.6 0c-106.83,0 -176.6,69.76 -176.6,176.6z"/>
   <path class="fil0" d="M6607.54 11318.41c0,352.26 -6.3,740.01 319.89,916.36 275.59,148.99 568.35,104.04 935.97,104.04 463.99,0 5534.37,-27.14 5679.65,10.97 325.41,85.38 319.16,555.89 48.76,654.75 -127.28,46.54 -295.15,40.7 -469.49,40.7l-5003.82 0c-395.93,0 -865.71,-73.23 -1121.79,114.45 -19.72,14.46 -42.33,34.81 -63.34,54.41l-29.74 29.12c-143.4,148.73 -178.36,273.1 -178.36,488.82 0,190.97 233.01,185.54 281.96,66.12 46.63,-113.76 -37.91,-225.6 162.59,-386.86 148.2,-119.18 802.05,-71.72 1027.17,-71.72 1452.09,0 2904.18,0 4356.27,0 252.59,0 875.56,29.64 1060.93,-18.32 640.82,-165.81 638.87,-1085.35 21.67,-1260.5 -239.05,-67.84 -767.11,-35.91 -1082.6,-35.91l-5023.45 0c-403.4,0.01 -609.63,31.94 -608.33,-510.17 0.76,-319.76 36.12,-451.35 -176.59,-451.35 -113.28,0 -137.35,162.79 -137.35,255.09z"/>
   <path class="fil0" d="M5469.41 14615.05l0 3492.87c0,262.55 277.46,529.82 588.69,529.82l1079.26 0c182.9,0 230.76,-238.44 63.15,-298.63 -96.44,-34.64 -961.19,-5.02 -1162.96,-14.41 -184.48,-8.59 -273.8,-140.53 -273.8,-334.52l0 -3257.39c0,-408.01 312.01,-353.21 706.43,-353.21l6887.62 0c266.06,0.01 412.08,48.63 412.08,-176.6 0,-47.25 -70.49,-117.74 -117.74,-117.74l-7652.91 0c-255.85,0 -529.82,272.58 -529.82,529.81z"/>
   <path class="fil0" d="M14064.22 16989.42l451.32 0 0 647.56 -451.32 0 0 -647.56zm-726.05 0l431.71 0 0 647.56 -431.71 0 0 -647.56zm726.05 -961.52l451.32 0 0 647.55 -451.32 0 0 -647.55zm-726.05 0l431.71 0 0 647.55 -431.71 0 0 -647.55zm726.05 -941.89l451.32 0 0 647.55 -451.32 0 0 -647.55zm-726.05 0l431.71 0 0 647.55 -431.71 0 0 -647.55zm-313.96 -137.37l0 2825.69c0,120.46 93.4,176.61 215.85,176.61l1373.6 0c122.45,0 215.85,-56.15 215.85,-176.61l0 -2825.69c0,-106.84 -69.77,-176.6 -176.6,-176.6l-1452.1 0c-106.83,0 -176.6,69.76 -176.6,176.6z"/>
   <path class="fil0" d="M15221.97 14732.79l0 3257.39c0,164.75 -60.93,277.97 -189.17,321.03 -120.42,40.44 -3484.01,12.56 -3696.16,12.56l-3178.9 0c-145.42,0 -403.57,-26.97 -494.97,34.9 -128.41,86.92 -68.76,279.07 102.51,279.07l7162.34 0c162.18,0 307.79,-72.68 397.5,-151.94 84.33,-74.5 191.19,-228.25 191.19,-377.88l0 -3492.87c0,-257.23 -273.97,-529.81 -529.82,-529.81l-804.54 0c-119.74,0 -178.44,207.58 -60.12,275.86 243.24,140.37 1100.14,-237.12 1100.14,371.69z"/>
  </g>
 </g>
</svg>
