<?xml version="1.0" encoding="UTF-8"?>
<!DOCTYPE svg PUBLIC "-//W3C//DTD SVG 1.1//EN" "http://www.w3.org/Graphics/SVG/1.1/DTD/svg11.dtd">
<!-- Creator: CorelDRAW 2020 (64 Bit) -->
<svg xmlns="http://www.w3.org/2000/svg" xml:space="preserve" width="5.124mm" height="5.124mm" version="1.1" style="shape-rendering:geometricPrecision; text-rendering:geometricPrecision; image-rendering:optimizeQuality; fill-rule:evenodd; clip-rule:evenodd"
viewBox="0 0 496.17 496.17"
 xmlns:xlink="http://www.w3.org/1999/xlink"
 xmlns:xodm="http://www.corel.com/coreldraw/odm/2003">
 <defs>
  <style type="text/css">
   <![CDATA[
    .fil0 {fill:#0084FF}
   ]]>
  </style>
 </defs>
 <g id="Camada_x0020_1">
  <metadata id="CorelCorpID_0Corel-Layer"/>
  <path class="fil0" d="M-0 245.11c0,42.62 3.71,65.3 17.3,104.33 1.15,3.3 2.18,5.03 3.7,8.12 1.65,3.33 2.29,5.58 3.85,8.96 8.01,17.26 22.08,39.62 34.99,53.48 2.55,2.74 3.32,4.35 5.79,6.97 4.32,4.59 8.21,8.37 12.62,12.88 8.41,8.61 17.72,16.36 27.77,23.16 10.2,6.91 19.9,13.24 30.94,18.93 7.51,3.87 30.22,14.22 38.44,14.22 6.9,0 11.63,-6.46 11.63,-13.9l0 -46.64c-5.83,0.14 -9.41,1.99 -16.47,1.99 -29.95,0 -54.88,-1.59 -67.57,-32.02 -6.07,-14.58 -14.25,-28.88 -27.61,-37.23 -3.82,-2.4 -9.04,-6.69 -9.49,-12.11 12.36,-8.47 31.7,3.31 40.49,12.13 11.76,11.78 20.78,40.21 48.4,38.91 11.81,-0.55 20.68,-0.25 30.11,-5.61 5.72,-3.25 2.81,-13.53 11.03,-26.42 2.18,-3.42 5.56,-4.98 6.62,-9.09 -7.23,-0.62 -17.2,-2.58 -24.16,-4.04 -25.77,-5.43 -47.98,-16.88 -64.69,-36.95 -6.97,-8.36 -11.54,-18.35 -15.21,-29.08 -12.71,-37.15 -12.53,-81.06 9.65,-113.93 8.18,-12.11 7.49,-5.3 4.07,-20.19 -3.72,-16.14 0.02,-56.79 7.98,-56.79 14.32,0 24.22,4.84 35.99,9.78 17.03,7.14 26.74,17.71 32.97,16.34 14.74,-3.24 27.77,-7.39 43.45,-7.26 7.35,0.07 11.42,-1.45 19.39,-1 17.35,1 35.92,2.94 52.73,7.59 3.85,1.07 4.27,1.79 7.18,0.25 12.04,-6.37 12.88,-9.67 32.71,-18.19 12.44,-5.34 15.93,-7.51 33.36,-7.51 3.62,15.89 7.76,13.17 7.76,42.67 0,5.14 -0.56,8.69 -1.53,13.31 -0.71,3.32 -3.21,9.49 -2.97,11.34 0.46,3.71 42.92,42.33 16.74,122.83 -9.55,29.34 -30.36,48.7 -57.78,59.91 -13.32,5.44 -32.56,10.57 -47.49,10.91 6.33,9.69 10.98,10.29 14.3,25.04 5.35,23.74 -0.93,80.87 3.18,95.98 1.61,5.93 6.21,8.98 12.56,8.98 6.29,0 30.36,-11.11 35.87,-13.89 8.1,-4.08 16.84,-8.52 24.08,-14.04l21.32 -15.87c9.32,-7.59 17.64,-16.18 26.08,-24.91 2.59,-2.68 3.27,-4.26 5.79,-6.97 13.7,-14.73 26.48,-35.13 35.15,-53.31 14.55,-30.51 25.18,-67.1 25.18,-102.24 0,-33.81 -2.29,-66.95 -14.4,-97.39 -5.9,-14.83 -11.68,-27.95 -19.21,-41.84l-11.93 -18.55c-8.56,-12.42 -17.37,-23.21 -27.87,-33.98 -22.69,-23.27 -51.46,-42.59 -81.22,-54.76 -3.93,-1.62 -7.78,-3.06 -11.22,-4.39 -42.34,-16.27 -96.23,-18.07 -140.37,-7.08 -23.35,5.81 -43.7,14.73 -64.62,26.12 -18.81,10.24 -36.94,24.75 -51.92,40.11 -14.8,15.17 -28.9,33.14 -39.45,51.89 -3.73,6.62 -6.83,12.92 -10.38,20.13 -11.8,23.98 -23.58,64.37 -23.58,99.9z"/>
 </g>
</svg>
