<?xml version="1.0" encoding="UTF-8"?>
<!DOCTYPE svg PUBLIC "-//W3C//DTD SVG 1.1//EN" "http://www.w3.org/Graphics/SVG/1.1/DTD/svg11.dtd">
<!-- Creator: CorelDRAW 2020 (64 Bit) -->
<svg xmlns="http://www.w3.org/2000/svg" xml:space="preserve" width="13mm" height="9mm" version="1.1" style="shape-rendering:geometricPrecision; text-rendering:geometricPrecision; image-rendering:optimizeQuality; fill-rule:evenodd; clip-rule:evenodd"
viewBox="0 0 1300 900"
 xmlns:xlink="http://www.w3.org/1999/xlink"
 xmlns:xodm="http://www.corel.com/coreldraw/odm/2003">
 <defs>
  <style type="text/css">
   <![CDATA[
    .fil1 {fill:#606062;fill-rule:nonzero}
    .fil0 {fill:black;fill-rule:nonzero}
   ]]>
  </style>
 </defs>
 <g id="Camada_x0020_1">
  <metadata id="CorelCorpID_0Corel-Layer"/>
  <polygon class="fil0" points="685.88,855.95 336.38,830.8 399.98,758.95 455.75,239.24 326.28,668.94 215.03,188.95 259.51,813.04 352.92,900.25 26.11,841.38 76.04,784.1 109.13,127.48 43.84,69 317.85,2.14 354.71,321.67 389.78,36.87 655.37,67.8 575.32,123.89 608.71,767.13 "/>
  <path class="fil1" d="M686.98 59.31l-33.05 287.6c17.99,-42.99 34.18,-75.92 48.51,-98.61 14.33,-22.87 26.08,-34.21 35.3,-34.21 6.83,0 12.21,5.12 16.06,15.36 3.78,10.25 5.7,24.34 5.7,42.63 0,23.06 -4.11,43.36 -12.34,61.29 -8.23,17.93 -21.1,34.22 -38.61,48.85 -38.76,32.57 -64.97,64.22 -78.63,95.14 -13.67,30.92 -20.51,70.44 -20.51,118.74 0,77.75 13.87,141.97 41.67,192.28 27.8,50.31 63.57,75.56 107.23,75.56 22.16,0 44.25,-11.16 66.35,-33.48 22.1,-22.32 42.4,-53.97 60.91,-94.95l0 128.43 34.77 -286.51c-16.06,36.05 -31.85,63.67 -47.44,83.07 -15.59,19.21 -29.73,28.9 -42.47,28.9 -13.66,0 -24.35,-8.05 -31.98,-24.15 -7.63,-16.1 -11.48,-38.42 -11.48,-66.96 0,-26.71 3.05,-48.12 9.23,-64.03 6.16,-15.92 19.83,-32.93 41.07,-51.23 30.92,-27.08 53.94,-59.46 69.14,-96.78 15.12,-37.33 22.69,-81.24 22.69,-131.73 0,-63.3 -10.09,-115.08 -30.32,-155.51 -20.18,-40.44 -46.52,-60.56 -78.9,-60.56 -21.36,0 -42.2,10.61 -62.57,31.65 -20.3,21.04 -41.27,53.61 -62.77,97.88l-7.56 -108.67z"/>
  <path class="fil0" d="M1171.21 59.31l33.05 287.6c-17.99,-42.99 -34.18,-75.92 -48.51,-98.61 -14.33,-22.87 -26.08,-34.21 -35.3,-34.21 -6.83,0 -12.21,5.12 -16.06,15.36 -3.78,10.25 -5.7,24.34 -5.7,42.63 0,23.06 4.11,43.36 12.34,61.29 8.23,17.93 21.1,34.22 38.61,48.85 38.76,32.57 64.97,64.22 78.63,95.14 13.67,30.92 20.51,70.44 20.51,118.74 0,77.75 -13.87,141.97 -41.67,192.28 -27.8,50.31 -63.57,75.56 -107.23,75.56 -22.16,0 -44.25,-11.16 -66.35,-33.48 -22.1,-22.32 -42.4,-53.97 -60.91,-94.95l0 128.43 -34.77 -286.51c16.06,36.05 31.85,63.67 47.44,83.07 15.59,19.21 29.73,28.9 42.47,28.9 13.66,0 24.35,-8.05 31.98,-24.15 7.63,-16.1 11.48,-38.42 11.48,-66.96 0,-26.71 -3.05,-48.12 -9.23,-64.03 -6.16,-15.92 -19.83,-32.93 -41.07,-51.23 -30.92,-27.08 -53.94,-59.46 -69.14,-96.78 -15.12,-37.33 -22.69,-81.24 -22.69,-131.73 0,-63.3 10.09,-115.08 30.32,-155.51 20.18,-40.44 46.52,-60.56 78.9,-60.56 21.36,0 42.2,10.61 62.57,31.65 20.3,21.04 41.27,53.61 62.77,97.88l7.56 -108.67z"/>
 </g>
</svg>
