<?xml version="1.0" encoding="UTF-8"?>
<!DOCTYPE svg PUBLIC "-//W3C//DTD SVG 1.1//EN" "http://www.w3.org/Graphics/SVG/1.1/DTD/svg11.dtd">
<!-- Creator: CorelDRAW 2020 (64 Bit) -->
<svg xmlns="http://www.w3.org/2000/svg" xml:space="preserve" width="5.124mm" height="5.124mm" version="1.1" style="shape-rendering:geometricPrecision; text-rendering:geometricPrecision; image-rendering:optimizeQuality; fill-rule:evenodd; clip-rule:evenodd"
viewBox="0 0 512.4 512.4"
 xmlns:xlink="http://www.w3.org/1999/xlink"
 xmlns:xodm="http://www.corel.com/coreldraw/odm/2003">
 <defs>
  <style type="text/css">
   <![CDATA[
    .fil0 {fill:#0084FF}
   ]]>
  </style>
 </defs>
 <g id="Camada_x0020_1">
  <metadata id="CorelCorpID_0Corel-Layer"/>
  <path class="fil0" d="M118.95 206.64l61.16 -0.02 0 184.19 -61.24 -0.17 0.08 -184zm117.94 -198.26l25.05 0c32.34,1.59 64.44,9.33 94.31,23.67 55.19,26.5 98.56,69.01 124.42,124.78 17.05,36.77 23.35,68.46 23.35,114.76 0,96.26 -62.88,186.16 -148.45,225.84 -36.47,16.92 -68.26,23.28 -114.04,23.35l-0.88 0c-95.86,-0.07 -185.91,-62.68 -225.68,-148.44 -16.97,-36.58 -23.28,-68.14 -23.35,-114.04l0 -0.95c0.07,-66.13 31.75,-131.1 74.81,-174.16 45.78,-45.78 107.56,-71.76 170.46,-74.81zm38.5 223.75c3.13,-6.06 14.83,-17.29 21.02,-21.02 27.67,-16.71 71.87,-10.24 91.29,20.69 13.24,21.09 13.21,44.8 13.21,72.81 0,28.72 0,57.45 0,86.2l-61.24 0c0,-29.07 -0.01,-58.13 0,-87.2 0.01,-27.2 -2.78,-53.93 -32.74,-52.83 -13.44,0.49 -21.91,8.68 -26.62,16.27 -6.59,10.6 -5.09,23.85 -5.09,37.56 0,28.74 0,57.47 0,86.21l-61.14 -0.19 -0.05 -183.99 61.15 -0.02 0.21 25.51zm-135.23 -112.82c47.6,-11.41 59.99,51.23 19.31,60.94 -47.22,11.27 -61.17,-50.9 -19.31,-60.94z"/>
 </g>
</svg>
