<?xml version="1.0" encoding="UTF-8"?>
<!DOCTYPE svg PUBLIC "-//W3C//DTD SVG 1.1//EN" "http://www.w3.org/Graphics/SVG/1.1/DTD/svg11.dtd">
<!-- Creator: CorelDRAW 2020 (64 Bit) -->
<svg xmlns="http://www.w3.org/2000/svg" xml:space="preserve" width="5.124mm" height="5.124mm" version="1.1" style="shape-rendering:geometricPrecision; text-rendering:geometricPrecision; image-rendering:optimizeQuality; fill-rule:evenodd; clip-rule:evenodd"
viewBox="0 0 512.4 512.4"
 xmlns:xlink="http://www.w3.org/1999/xlink"
 xmlns:xodm="http://www.corel.com/coreldraw/odm/2003">
 <defs>
  <style type="text/css">
   <![CDATA[
    .fil0 {fill:#0084FF}
   ]]>
  </style>
 </defs>
 <g id="Camada_x0020_1">
  <metadata id="CorelCorpID_0Corel-Layer"/>
  <g>
   <path id="Path_13" class="fil0" d="M247.83 54.4c9.66,-0.27 19.71,-0.56 29.47,-0.56 24.21,0 48.71,1.15 72.73,3.35 0.59,0.05 1.15,0.03 1.7,0.03 15.93,0 31.75,2.9 46.63,8.53 21.26,9.91 38.38,27.03 48.29,48.29 5.63,14.89 8.53,30.71 8.53,46.64 0,0.56 -0.02,1.17 -0.02,1.72 0,25.56 2.83,34.08 2.83,102.26 0.28,9.66 0.57,19.71 0.57,29.47 0,24.21 -1.15,48.71 -3.35,72.73 -0.05,0.58 -0.03,1.14 -0.03,1.69 0,15.93 -2.9,31.75 -8.53,46.63 -9.91,21.26 -27.03,38.38 -48.29,48.29 -14.88,5.63 -30.7,8.53 -46.63,8.53 -0.55,0 -1.11,-0.02 -1.64,-0.02 -25.56,0 -34.08,2.83 -102.26,2.83 -9.6,0.27 -19.36,0.56 -29.03,0.56 -24.4,0 -49,-1.24 -73.21,-3.45 -0.5,0.01 -1.06,0.03 -1.61,0.03 -15.93,0 -31.75,-2.9 -46.63,-8.53 -21.26,-9.91 -38.38,-27.03 -48.29,-48.29 -5.63,-14.88 -8.53,-30.7 -8.53,-46.63 0,-0.55 0.02,-1.11 0.02,-1.64 0,-25.56 -2.83,-34.08 -2.83,-102.26 -0.3,-9.85 -0.59,-20.09 -0.59,-30.04 0,-24.02 1.15,-48.33 3.35,-72.16 -0.01,-0.54 -0.03,-1.1 -0.03,-1.65 0,-15.93 2.9,-31.75 8.53,-46.63 4.95,-10.54 11.72,-20.18 19.92,-28.45 6.66,-9.93 16.8,-17.04 28.42,-19.89 14.91,-5.65 30.74,-8.56 46.7,-8.56 0.53,0 1.09,0.02 1.61,0.02 24.07,-2.25 48.57,-3.4 72.78,-3.4 9.76,0 19.81,0.29 29.46,0.57l-0.04 -0.01zm0 -45.46c-9.81,-0.34 -20.06,-0.54 -30,-0.54 -25,0 -50.21,1.23 -75.11,3.38 -0.1,-0.01 -0.25,-0.01 -0.36,-0.01 -21.22,0 -42.31,3.85 -62.13,11.37 -17.24,5.61 -32.85,15.38 -45.46,28.4 -13.02,12.61 -22.79,28.22 -28.4,45.45 -7.66,16.87 -11.66,35.19 -11.66,53.73 0,2.92 0.11,5.86 0.3,8.77 -2.15,24.9 -3.38,50.11 -3.38,75.11 0,9.94 0.2,20.19 0.51,30.01 -0.31,9.78 -0.51,20.03 -0.51,29.97 0,25 1.23,50.21 3.38,75.11 -0.01,0.13 -0.01,0.3 -0.01,0.43 0,21.22 3.85,42.31 11.37,62.13 5.62,17.21 15.39,32.81 28.4,45.39 12.59,13.02 28.24,22.82 45.47,28.42 19.79,7.49 40.85,11.34 62.05,11.34 0.13,0 0.3,0 0.43,0 24.9,2.14 50.11,3.37 75.11,3.37 9.94,0 20.19,-0.2 30,-0.51 9.76,0.31 20.01,0.51 29.95,0.51 25,0 50.21,-1.23 75.11,-3.38 0.17,0.01 0.36,0.01 0.53,0.01 21.2,0 42.26,-3.85 62.07,-11.35 34.62,-11.93 61.86,-39.17 73.78,-73.79 7.51,-19.81 11.36,-40.87 11.36,-62.07 0,-0.13 0,-0.3 0,-0.43 0,-28.42 2.83,-37.04 2.83,-105.09 0.34,-9.78 0.54,-20.03 0.54,-29.97 0,-25 -1.23,-50.21 -3.38,-75.11 0.01,-0.12 0.01,-0.29 0.01,-0.42 0,-21.2 -3.85,-42.26 -11.35,-62.07 -5.61,-17.27 -15.37,-32.92 -28.42,-45.55 -12.57,-13.02 -28.17,-22.79 -45.37,-28.41 -19.83,-7.52 -40.92,-11.37 -62.14,-11.37 -0.13,0 -0.3,0 -0.43,0 -24.9,-2.14 -50.11,-3.37 -75.11,-3.37 -9.94,0 -20.19,0.2 -30,0.51l0.02 0.03zm0 124.99c-0.68,0.01 -1.41,-0.01 -2.12,-0.01 -70.99,0 -128.56,57.57 -128.56,128.56 0,0.71 0.02,1.44 0.02,2.13 -0.01,72.14 58.51,130.66 130.66,130.66 72.15,0 130.67,-58.52 130.67,-130.66 0,-72.16 -58.52,-130.68 -130.67,-130.68l0 0zm0 215.9c-0.49,-0.01 -1.03,0 -1.54,0 -46.21,0 -83.69,-37.48 -83.69,-83.69 0,-0.51 0.01,-1.05 0.01,-1.53 0,-0.5 -0.01,-1.04 -0.01,-1.55 0,-46.21 37.48,-83.69 83.69,-83.69 0.51,0 1.05,0.01 1.54,0.01 0.49,0 1.03,-0.01 1.54,-0.01 46.21,0 83.69,37.48 83.69,83.69 0,0.51 -0.01,1.05 -0.01,1.55 0,0.48 0.01,1.02 0.01,1.53 0,46.21 -37.48,83.69 -83.69,83.69 -0.51,0 -1.05,-0.01 -1.54,-0.01l0 0.01zm136.37 -252.81c-17.25,0.03 -31.21,14.01 -31.21,31.25 0,17.26 13.99,31.25 31.25,31.25 17.26,0 31.25,-13.99 31.25,-31.25 0,-0.01 0,-0.02 0,-0.03 -0.14,-17.19 -14.05,-31.1 -31.25,-31.24l-0.04 0.02zm0 0l0 0 0 0z" data-name="Path 13"/>
  </g>
 </g>
</svg>
