<?xml version="1.0" encoding="UTF-8"?>
<!DOCTYPE svg PUBLIC "-//W3C//DTD SVG 1.1//EN" "http://www.w3.org/Graphics/SVG/1.1/DTD/svg11.dtd">
<!-- Creator: CorelDRAW 2020 (64 Bit) -->
<svg xmlns="http://www.w3.org/2000/svg" xml:space="preserve" width="210mm" height="297mm" version="1.1" style="shape-rendering:geometricPrecision; text-rendering:geometricPrecision; image-rendering:optimizeQuality; fill-rule:evenodd; clip-rule:evenodd"
viewBox="0 0 21000 29700"
 xmlns:xlink="http://www.w3.org/1999/xlink"
 xmlns:xodm="http://www.corel.com/coreldraw/odm/2003">
 <defs>
  <style type="text/css">
   <![CDATA[
    .fil0 {fill:none}
   ]]>
  </style>
   <clipPath id="id0">
    <path d="M20238.17 780.71l-19465.13 0 0 28159.87 19465.13 0 0 -28159.87z"/>
   </clipPath>
    <clipPath id="id1">
     <path d="M20238.17 780.71l-19465.13 0 0 28159.87 19465.13 0 0 -28159.87z"/>
    </clipPath>
    <clipPath id="id2">
     <path d="M20238.17 780.71l-19465.13 0 0 28159.87 19465.13 0 0 -28159.87z"/>
    </clipPath>
    <clipPath id="id3">
     <path d="M20238.17 780.71l-19465.13 0 0 28159.87 19465.13 0 0 -28159.87z"/>
    </clipPath>
    <clipPath id="id4">
     <path d="M20238.17 780.71l-19465.13 0 0 28159.87 19465.13 0 0 -28159.87z"/>
    </clipPath>
 </defs>
 <g id="Camada_x0020_1">
  <metadata id="CorelCorpID_0Corel-Layer"/>
  <g>
  </g>
  <g style="clip-path:url(#id0)">
   <g>
   </g>
   <g style="clip-path:url(#id1)">
   </g>
   <g style="clip-path:url(#id2)">
    <image id="mss3.png" x="-355.26" y="260.7" width="24781.69" height="33023.17" xlink:href="mss3_Images\mss3_ImgID1.png"/>
   </g>
   <g style="clip-path:url(#id3)">
   </g>
   <g style="clip-path:url(#id4)">
   </g>
  </g>
  <polygon class="fil0" points="20238.17,780.71 773.04,780.71 773.04,28940.58 20238.17,28940.58 "/>
 </g>
</svg>
